<!--?xml version="1.0" encoding="UTF-8" standalone="no"?-->
<svg width="64px" height="36px" viewBox="0 0 64 36" version="1.1" xmlns="http://www.w3.org/2000/svg" xmlns:xlink="http://www.w3.org/1999/xlink" class="si-duo-dollar-money">
    <!-- Generator: Sketch 3.0.3 (7891) - http://www.bohemiancoding.com/sketch -->
    <title class="">Dollar-money</title>
    
    <defs class=""></defs>
    <g id="Page-1" stroke="none" stroke-width="1" fill="none" fill-rule="evenodd" class="">
        <g id="Dollar-money" transform="translate(1.000000, 1.000000)" stroke-width="2" class="">
            <g id="Page-1" class="">
                <g id="Dollar-money" class="">
                    <rect id="Rectangle-path" stroke="#6D6E71" x="0" y="0" width="62" height="34" class="si-duo-dollar-money-main si-duo-dollar-money-stroke si-duo-dollar-money-base si-duo-stroke si-duo-base" style=""></rect>
                    <path d="M10,30 L52,30" id="Shape_2_" stroke="#6D6E71" class="si-duo-dollar-money-line si-duo-dollar-money-stroke si-duo-dollar-money-base si-duo-stroke si-duo-base" style=""></path>
                    <path d="M10,4 L52,4" id="Shape_3_" stroke="#6D6E71" class="si-duo-dollar-money-line si-duo-dollar-money-stroke si-duo-dollar-money-base si-duo-stroke si-duo-base" style=""></path>
                    <circle id="Oval" stroke="#6D6E71" cx="31" cy="17" r="13" class="si-duo-dollar-money-circle si-duo-dollar-money-stroke si-duo-dollar-money-base si-duo-stroke si-duo-base" style=""></circle>
                    <path d="M27,21.3 C27,23.3 28.8,25 31,25 C33.2,25 35,23.4 35,21.3 C35,18.3 31,16.9 31,16.9 C31,16.9 27,15.4 27,12.5 C27,10.5 28.8,8.8 31,8.8 C33.2,8.8 35,10.4 35,12.5" id="Shape" stroke="#1396D7" class="si-duo-dollar-money-dollar si-duo-dollar-money-stroke si-duo-dollar-money-accent si-duo-stroke si-duo-accent" style=""></path>
                    <path d="M31.1,5 L31.1,28.9" id="Shape_1_" stroke="#1396D7" class="si-duo-dollar-money-dollar si-duo-dollar-money-stroke si-duo-dollar-money-accent si-duo-stroke si-duo-accent" style=""></path>
                    <path d="M7,1 C7,4.3 4.3,7 1,7" id="Shape_4_" stroke="#6D6E71" class="si-duo-dollar-money-angle si-duo-dollar-money-stroke si-duo-dollar-money-base si-duo-stroke si-duo-base" style=""></path>
                    <path d="M1,27 C4.3,27 7,29.7 7,33" id="Shape_5_" stroke="#6D6E71" class="si-duo-dollar-money-angle si-duo-dollar-money-stroke si-duo-dollar-money-base si-duo-stroke si-duo-base" style=""></path>
                    <path d="M55,33 C55,29.7 57.7,27 61,27" id="Shape_6_" stroke="#6D6E71" class="si-duo-dollar-money-angle si-duo-dollar-money-stroke si-duo-dollar-money-base si-duo-stroke si-duo-base" style=""></path>
                    <path d="M61,7 C57.7,7 55,4.3 55,1" id="Shape_7_" stroke="#6D6E71" class="si-duo-dollar-money-angle si-duo-dollar-money-stroke si-duo-dollar-money-base si-duo-stroke si-duo-base" style=""></path>
                </g>
            </g>
        </g>
    </g>
</svg>