<!--?xml version="1.0" encoding="UTF-8" standalone="no"?-->
<svg width="44px" height="63px" viewBox="0 0 44 63" version="1.1" xmlns="http://www.w3.org/2000/svg" xmlns:xlink="http://www.w3.org/1999/xlink" class="si-duo-flower">
    <!-- Generator: Sketch 3.0.3 (7891) - http://www.bohemiancoding.com/sketch -->
    <title class="">Flower</title>
    
    <defs class=""></defs>
    <g id="Page-1" stroke="none" stroke-width="1" fill="none" fill-rule="evenodd" class="">
        <g id="Flower" transform="translate(1.000000, 1.000000)" stroke-width="2" class="">
            <g id="Page-1" class="">
                <g id="Flower" class="">
                    <path d="M21,42 L21,62" id="Shape_12_" stroke="#6D6E71" class="si-duo-flower-main si-duo-flower-stroke si-duo-flower-base si-duo-stroke si-duo-base" style=""></path>
                    <circle id="Oval" stroke="#1396D7" cx="21" cy="21" r="3" class="si-duo-flower-stigma si-duo-flower-stroke si-duo-flower-accent si-duo-stroke si-duo-accent" style=""></circle>
                    <path d="M24,6 C24,9.3 22.7,15 21,15 C19.3,15 18,9.3 18,6 C18,2.7 19.3,0 21,0 C22.7,0 24,2.7 24,6 L24,6 L24,6 Z" id="Shape" stroke="#6D6E71" class="si-duo-flower-petal si-duo-flower-stroke si-duo-flower-base si-duo-stroke si-duo-base" style=""></path>
                    <path d="M18,36 C18,32.7 19.3,27 21,27 C22.7,27 24,32.7 24,36 C24,39.3 22.7,42 21,42 C19.3,42 18,39.3 18,36 L18,36 L18,36 Z" id="Shape_1_" stroke="#6D6E71" class="si-duo-flower-petal si-duo-flower-stroke si-duo-flower-base si-duo-stroke si-duo-base" style=""></path>
                    <path d="M16.1,6.5 C17.8,9.4 19.4,15 18,15.8 C16.6,16.6 12.6,12.4 10.9,9.5 C9.2,6.6 9.1,3.6 10.5,2.8 C11.9,2 14.4,3.6 16.1,6.5 L16.1,6.5 L16.1,6.5 Z" id="Shape_2_" stroke="#6D6E71" class="si-duo-flower-petal si-duo-flower-stroke si-duo-flower-base si-duo-stroke si-duo-base" style=""></path>
                    <path d="M25.9,35.5 C24.2,32.6 22.6,27 24,26.2 C25.4,25.4 29.4,29.6 31.1,32.5 C32.8,35.4 32.9,38.4 31.5,39.2 C30.1,40 27.6,38.4 25.9,35.5 L25.9,35.5 L25.9,35.5 Z" id="Shape_3_" stroke="#6D6E71" class="si-duo-flower-petal si-duo-flower-stroke si-duo-flower-base si-duo-stroke si-duo-base" style=""></path>
                    <path d="M9.5,10.9 C12.4,12.6 16.6,16.6 15.8,18 C15,19.4 9.4,17.8 6.5,16.1 C3.6,14.4 2,11.9 2.8,10.5 C3.6,9.1 6.6,9.2 9.5,10.9 L9.5,10.9 L9.5,10.9 Z" id="Shape_4_" stroke="#6D6E71" class="si-duo-flower-petal si-duo-flower-stroke si-duo-flower-base si-duo-stroke si-duo-base" style=""></path>
                    <path d="M32.5,31.1 C29.6,29.4 25.4,25.4 26.2,24 C27,22.6 32.6,24.2 35.5,25.9 C38.4,27.6 40,30.1 39.2,31.5 C38.4,32.9 35.4,32.8 32.5,31.1 L32.5,31.1 L32.5,31.1 Z" id="Shape_5_" stroke="#6D6E71" class="si-duo-flower-petal si-duo-flower-stroke si-duo-flower-base si-duo-stroke si-duo-base" style=""></path>
                    <path d="M6,18 C9.3,18 15,19.3 15,21 C15,22.7 9.3,24 6,24 C2.7,24 0,22.7 0,21 C0,19.3 2.7,18 6,18 L6,18 L6,18 Z" id="Shape_6_" stroke="#6D6E71" class="si-duo-flower-petal si-duo-flower-stroke si-duo-flower-base si-duo-stroke si-duo-base" style=""></path>
                    <path d="M36,24 C32.7,24 27,22.7 27,21 C27,19.3 32.7,18 36,18 C39.3,18 42,19.3 42,21 C42,22.7 39.3,24 36,24 L36,24 L36,24 Z" id="Shape_7_" stroke="#6D6E71" class="si-duo-flower-petal si-duo-flower-stroke si-duo-flower-base si-duo-stroke si-duo-base" style=""></path>
                    <path d="M6.5,25.9 C9.4,24.2 15,22.6 15.8,24 C16.6,25.4 12.4,29.4 9.5,31.1 C6.6,32.8 3.6,32.9 2.8,31.5 C2,30.1 3.6,27.6 6.5,25.9 L6.5,25.9 L6.5,25.9 Z" id="Shape_8_" stroke="#6D6E71" class="si-duo-flower-petal si-duo-flower-stroke si-duo-flower-base si-duo-stroke si-duo-base" style=""></path>
                    <path d="M35.5,16.1 C32.6,17.8 27,19.4 26.2,18 C25.4,16.6 29.6,12.6 32.5,10.9 C35.4,9.2 38.4,9.1 39.2,10.5 C40,11.9 38.4,14.4 35.5,16.1 L35.5,16.1 L35.5,16.1 Z" id="Shape_9_" stroke="#6D6E71" class="si-duo-flower-petal si-duo-flower-stroke si-duo-flower-base si-duo-stroke si-duo-base" style=""></path>
                    <path d="M10.9,32.5 C12.6,29.6 16.6,25.4 18,26.2 C19.4,27 17.8,32.6 16.1,35.5 C14.4,38.4 11.9,40 10.5,39.2 C9.1,38.4 9.2,35.4 10.9,32.5 L10.9,32.5 L10.9,32.5 Z" id="Shape_10_" stroke="#6D6E71" class="si-duo-flower-petal si-duo-flower-stroke si-duo-flower-base si-duo-stroke si-duo-base" style=""></path>
                    <path d="M31.1,9.5 C29.4,12.4 25.4,16.6 24,15.8 C22.6,15 24.2,9.4 25.9,6.5 C27.6,3.6 30.1,2 31.5,2.8 C32.9,3.6 32.8,6.6 31.1,9.5 L31.1,9.5 L31.1,9.5 Z" id="Shape_11_" stroke="#6D6E71" class="si-duo-flower-petal si-duo-flower-stroke si-duo-flower-base si-duo-stroke si-duo-base" style=""></path>
                    <path d="M18.6,50.4 C21.3,55 21.9,59.6 19.9,60.8 C18,61.9 14.3,59.1 11.6,54.5 C8.9,49.9 10.3,44.1 10.3,44.1 C10.3,44.1 15.9,45.8 18.6,50.4 L18.6,50.4 L18.6,50.4 Z" id="Shape_13_" stroke="#1396D7" class="si-duo-flower-leaf si-duo-flower-stroke si-duo-flower-accent si-duo-stroke si-duo-accent" style=""></path>
                    <path d="M31.8,44.1 C31.8,44.1 33,49.8 30.3,54.4 C27.6,59 23.9,61.9 22.1,60.8 C20.3,59.7 20.9,55.1 23.6,50.5 C26.3,45.9 31.8,44.1 31.8,44.1 L31.8,44.1 L31.8,44.1 Z" id="Shape_14_" stroke="#1396D7" class="si-duo-flower-leaf si-duo-flower-stroke si-duo-flower-accent si-duo-stroke si-duo-accent" style=""></path>
                </g>
            </g>
        </g>
    </g>
</svg>