

<svg version="1.1" xmlns="http://www.w3.org/2000/svg" xmlns:xlink="http://www.w3.org/1999/xlink" x="0px" y="0px" viewBox="0 0 58 64" enable-background="new 0 0 58 64" xml:space="preserve" class="si-harmony-television"><title class="">Television</title><g class=""><g transform="translate(1.000000, 1.000000)" class=""><path stroke-opacity="1" fill="none" stroke="#585952" stroke-width="2" stroke-linecap="round" d="M32.586,8.341L40,0" class="si-harmony-television-antenna si-harmony-television-thick si-harmony-television-thick-stroke si-harmony-television-stroke si-harmony-stroke si-harmony-thick-stroke"></path><path stroke-opacity="1" fill="none" stroke="#585952" stroke-width="2" stroke-linecap="round" d="M18.366,8.286L11,0" class="si-harmony-television-antenna si-harmony-television-thick si-harmony-television-thick-stroke si-harmony-television-stroke si-harmony-stroke si-harmony-thick-stroke"></path><path fill-opacity="1" stroke-opacity="1" fill="#e6f38f" stroke="#585952" stroke-width="2" d="M54,13H34c0-3.866-3.83-7-8.556-7s-8.556,3.134-8.556,7
			H38.75H2c-1.104,0-2,0.896-2,2v36c0,1.104,0.896,2,2,2h46H10.562L8,60c0,1.104,0.896,2,2,2l7-9h21l8,9c1.104,0,2-0.896,2-2l-3-7h9
			c1.104,0,2-0.896,2-2V15C56,13.896,55.104,13,54,13L54,13L54,13z" class="si-harmony-television-main si-harmony-television-thick si-harmony-television-thick-stroke si-harmony-television-strokea si-harmony-stroke si-harmony-thick-stroke si-harmony-main si-harmony-main-fill si-harmony-fill"></path><path fill="none" stroke="#58595B" d="M42.5,47.372c0,1.133-0.919,2.051-2.052,2.051H5.551
			c-1.133,0-2.051-0.918-2.051-2.051V18.628c0-1.133,0.918-2.051,2.051-2.051h34.897c1.133,0,2.052,0.918,2.052,2.051V47.372
			L42.5,47.372z" class="si-harmony-television-screen si-harmony-television-thin si-harmony-television-thin-stroke si-harmony-television-stroke si-harmony-stroke si-harmony-thin-stroke"></path><circle fill-opacity="1" fill="#9ca5b8" stroke="#58595B" cx="49.521" cy="44.521" r="3.521" class="si-harmony-television-switch si-harmony-television-thin si-harmony-television-thin-stroke si-harmony-television-stroke si-harmony-stroke si-harmony-thin-stroke si-harmony-inner-fill si-harmony-fill"></circle><circle fill-opacity="1" fill="#9ca5b8" stroke="#58595B" cx="49.5" cy="36.5" r="2.5" class="si-harmony-television-switch si-harmony-television-thin si-harmony-television-thin-stroke si-harmony-television-stroke si-harmony-stroke si-harmony-thin-stroke si-harmony-fill si-harmony-inner-fill"></circle><line fill="none" stroke="#58595B" stroke-linecap="round" stroke-miterlimit="10" x1="46" y1="21" x2="52" y2="21" class="si-harmony-television-speaker si-harmony-television-thin si-harmony-television-thin-stroke si-harmony-television-stroke si-harmony-stroke si-harmony-thin-stroke"></line><line fill="none" stroke="#58595B" stroke-linecap="round" stroke-miterlimit="10" x1="52" y1="23" x2="46" y2="23" class="si-harmony-television-speaker si-harmony-television-thin si-harmony-television-thin-stroke si-harmony-television-stroke si-harmony-stroke si-harmony-thin-stroke"></line><line fill="none" stroke="#58595B" stroke-linecap="round" stroke-miterlimit="10" x1="46" y1="25" x2="52" y2="25" class="si-harmony-television-speaker si-harmony-television-thin si-harmony-television-thin-stroke si-harmony-television-stroke si-harmony-stroke si-harmony-thin-stroke"></line><line fill="none" stroke="#58595B" stroke-linecap="round" stroke-miterlimit="10" x1="52" y1="27" x2="46" y2="27" class="si-harmony-television-speaker si-harmony-television-thin si-harmony-television-thin-stroke si-harmony-television-stroke si-harmony-stroke si-harmony-thin-stroke"></line></g></g></svg>
