
<svg viewBox="0 0 64 34" version="1.1" xmlns="http://www.w3.org/2000/svg" xmlns:xlink="http://www.w3.org/1999/xlink" class="si-harmony-piano-keyboard"><title class="">Piano-keyboard</title><defs class=""></defs><g stroke="none" stroke-width="1" fill="none" fill-rule="evenodd" class=""><g transform="translate(1.000000, 1.000000)" class=""><path fill-opacity="1" fill="#e6f38f" stroke-opacity="1" d="M62,28 C62,30.209 60.209,32 58,32 L4,32 C1.791,32 0,30.209 0,28 L0,4 C0,1.791 1.791,0 4,0 L58,0 C60.209,0 62,1.791 62,4 L62,28 L62,28 Z" stroke="#585952" stroke-width="2" class="si-harmony-piano-keyboard-main si-harmony-piano-keyboard-thick si-harmony-piano-keyboard-thick-stroke si-harmony-piano-keyboard-stroke si-harmony-stroke si-harmony-thick-stroke si-harmony-main si-harmony-main-fill si-harmony-fill"></path><path fill-opacity="1" d="M13.984,16.47 C13.984,17.514 13.204,18 12.242,18 L8.758,18 C7.796,18 7.016,17.514 7.016,16.47 L7.016,0 L13.985,0 L13.985,16.47 L13.984,16.47 Z" fill="#9ca5b8" class="si-harmony-piano-keyboard-keyboard si-harmony-piano-keyboard-fill si-harmony-fill si-harmony-inner-fill"></path><path fill-opacity="1" d="M28,16.505 C28,17.549 27.216,18 26.249,18 L22.75,18 C21.784,18 21,17.549 21,16.505 L21,0 L28,0 L28,16.505 L28,16.505 Z" fill="#9ca5b8" class="si-harmony-piano-keyboard-keyboard si-harmony-piano-keyboard-fill si-harmony-fill si-harmony-inner-fill"></path><path fill-opacity="1" d="M40.958,16.439 C40.958,17.486 40.18,18 39.219,18 L35.74,18 C34.779,18 34,17.486 34,16.439 L34,0 L40.958,0 L40.958,16.439 L40.958,16.439 Z" fill="#9ca5b8" class="si-harmony-piano-keyboard-keyboard si-harmony-piano-keyboard-fill si-harmony-fill si-harmony-inner-fill"></path><path fill-opacity="1" d="M55,16.11 C55,17.153 54.216,18 53.25,18 L49.75,18 C48.784,18 48,17.153 48,16.11 L48,0 L55,0 L55,16.11 L55,16.11 Z" fill="#9ca5b8" class="si-harmony-piano-keyboard-keyboard si-harmony-piano-keyboard-fill si-harmony-fill si-harmony-inner-fill"></path><path d="M10.542,18 L10.542,32" stroke="#58595B" class="si-harmony-piano-keyboard-keyboard si-harmony-piano-keyboard-thin si-harmony-piano-keyboard-thin-stroke si-harmony-piano-keyboard-stroke si-harmony-stroke si-harmony-thin-stroke"></path><path d="M24.583,18 L24.583,32" stroke="#58595B" class="si-harmony-piano-keyboard-keyboard si-harmony-piano-keyboard-thin si-harmony-piano-keyboard-thin-stroke si-harmony-piano-keyboard-stroke si-harmony-stroke si-harmony-thin-stroke"></path><path d="M37.562,18 L37.562,32" stroke="#58595B" class="si-harmony-piano-keyboard-keyboard si-harmony-piano-keyboard-thin si-harmony-piano-keyboard-thin-stroke si-harmony-piano-keyboard-stroke si-harmony-stroke si-harmony-thin-stroke"></path><path d="M51.562,18 L51.562,32" stroke="#58595B" class="si-harmony-piano-keyboard-keyboard si-harmony-piano-keyboard-thin si-harmony-piano-keyboard-thin-stroke si-harmony-piano-keyboard-stroke si-harmony-stroke si-harmony-thin-stroke"></path></g></g></svg>