

<svg version="1.1" xmlns="http://www.w3.org/2000/svg" xmlns:xlink="http://www.w3.org/1999/xlink" x="0px" y="0px" viewBox="0 0 64 39" enable-background="new 0 0 64 39" xml:space="preserve" class="si-harmony-box-empty"><title class="">Box-empty</title><g class=""><g transform="translate(1.000000, 1.000000)" class=""><path fill-opacity="1" stroke-opacity="1" fill="#e6f38f" stroke="#585952" stroke-width="2" d="M60.657,16.119L58,2
			c0-1.104-0.896-2-2-2H6C4.896,0,4,0.896,4,2L1.343,16.119C0.563,16.392,0,17.127,0,18v17c0,1.104,0.896,2,2,2h58
			c1.104,0,2-0.896,2-2V18C62,17.127,61.438,16.393,60.657,16.119L60.657,16.119z" class="si-harmony-box-empty-main si-harmony-box-empty-thick si-harmony-box-empty-thick-stroke si-harmony-box-empty-stroke si-harmony-stroke si-harmony-thick-stroke si-harmony-main si-harmony-main-fill si-harmony-fill"></path><path fill-opacity="1" fill="#9ca5b8" d="M39.033,19.092H22.85c-0.95,0-0.892-1.046-0.892-2.092H40.04C40.041,18.104,40.131,19.092,39.033,19.092
			L39.033,19.092z" class="si-harmony-box-empty-handle si-harmony-box-empty-fill si-harmony-fill si-harmony-inner-fill"></path><path fill-opacity="1" fill="#e6f38f" stroke="#58595B" d="M0.917,16.583h59.5" class="si-harmony-box-empty-main si-harmony-box-empty-thin si-harmony-box-empty-thin-stroke si-harmony-box-empty-stroke si-harmony-stroke si-harmony-thin-stroke si-harmony-main si-harmony-main-fill si-harmony-fill"></path><path fill-opacity="1" fill="#9ca5b8" d="M5.166,16.875L7.192,4.198c0-0.569,0.459-1.031,1.026-1.031
			H53.78c0.567,0,1.026,0.462,1.026,1.031l2.026,12.677" class="si-harmony-box-empty-inner si-harmony-box-empty-fill si-harmony-fill si-harmony-inner-fill"></path></g></g></svg>
