

<svg version="1.1" xmlns="http://www.w3.org/2000/svg" xmlns:xlink="http://www.w3.org/1999/xlink" x="0px" y="0px" viewBox="0 0 56 63" enable-background="new 0 0 56 63" xml:space="preserve" class="si-harmony-mushroom"><title class="">Mushroom</title><g class=""><g transform="translate(1.000000, 1.000000)" class=""><path fill-opacity="1" stroke-opacity="1" fill="#e6f38f" stroke="#585952" stroke-width="2" stroke-linejoin="round" d="M26.594,0
			C11.947,0,0.073,11.802,0.073,26.357c0,10.455,8.121,9.19,19.047,7.752c0,0-0.036,4.244-0.036,7.443
			c0,14.069-7.444,19.447,7.511,19.447c14.406,0,7.328-4.135,7.328-19.609c0-3.203,0.267-7.282,0.267-7.282
			c10.932,1.437,18.927,2.704,18.927-7.751C53.115,11.802,41.24,0,26.594,0L26.594,0z" class="si-harmony-mushroom-main si-harmony-mushroom-thick si-harmony-mushroom-thick-stroke si-harmony-mushroom-stroke si-harmony-stroke si-harmony-thick-stroke si-harmony-main si-harmony-main-fill si-harmony-fill"></path><path fill="none" stroke="#58595B" d="M35.138,33.765
			c-2.682-0.373-5.555-0.699-8.544-0.699c-2.943,0-5.774,0.327-8.42,0.708" class="si-harmony-mushroom-line si-harmony-mushroom-thin si-harmony-mushroom-thin-stroke si-harmony-mushroom-stroke si-harmony-stroke si-harmony-thin-stroke"></path><path fill="none" stroke="#58595B" d="M21.479,36.167c1.188,8.333-1,18.75-1,18.75" class="si-harmony-mushroom-line si-harmony-mushroom-thin si-harmony-mushroom-thin-stroke si-harmony-mushroom-stroke si-harmony-stroke si-harmony-thin-stroke"></path><path fill="none" stroke="#58595B" d="M34.526,6.961c0,1.975-1.591,3.576-3.553,3.576
			c-1.964,0-3.555-1.602-3.555-3.576c0-1.98,1.591-3.583,3.555-3.583C32.936,3.378,34.526,4.98,34.526,6.961L34.526,6.961z" class="si-harmony-mushroom-circle si-harmony-mushroom-thin si-harmony-mushroom-thin-stroke si-harmony-mushroom-stroke si-harmony-stroke si-harmony-thin-stroke"></path><path fill="none" stroke="#58595B" d="M13.526,14.961c0,1.975-1.591,3.576-3.553,3.576
			c-1.964,0-3.555-1.602-3.555-3.576c0-1.98,1.591-3.583,3.555-3.583C11.936,11.378,13.526,12.98,13.526,14.961L13.526,14.961z" class="si-harmony-mushroom-circle si-harmony-mushroom-thin si-harmony-mushroom-thin-stroke si-harmony-mushroom-stroke si-harmony-stroke si-harmony-thin-stroke"></path><path fill="none" stroke="#58595B" d="M46.526,20.961c0,1.975-1.591,3.576-3.553,3.576
			c-1.964,0-3.555-1.602-3.555-3.576c0-1.98,1.591-3.583,3.555-3.583C44.936,17.378,46.526,18.98,46.526,20.961L46.526,20.961z" class="si-harmony-mushroom-circle si-harmony-mushroom-thin si-harmony-mushroom-thin-stroke si-harmony-mushroom-stroke si-harmony-stroke si-harmony-thin-stroke"></path><path fill="none" stroke="#58595B" d="M24.526,26.961c0,1.975-1.591,3.576-3.553,3.576
			c-1.964,0-3.555-1.602-3.555-3.576c0-1.98,1.591-3.583,3.555-3.583C22.936,23.378,24.526,24.98,24.526,26.961L24.526,26.961z" class="si-harmony-mushroom-circle si-harmony-mushroom-thin si-harmony-mushroom-thin-stroke si-harmony-mushroom-stroke si-harmony-stroke si-harmony-thin-stroke"></path></g></g></svg>
