

<svg version="1.1" xmlns="http://www.w3.org/2000/svg" xmlns:xlink="http://www.w3.org/1999/xlink" x="0px" y="0px" viewBox="0 0 64 39" enable-background="new 0 0 64 39" xml:space="preserve" class="si-harmony-box-upload"><title class="">Box-upload</title><g class=""><g transform="translate(1.000000, 1.000000)" class=""><path fill-opacity="1" stroke-opacity="1" fill="#e6f38f" stroke="#585952" stroke-width="2" d="M60.657,16.119L58,2
			c0-1.104-0.896-2-2-2H6C4.896,0,4,0.896,4,2L1.343,16.119C0.563,16.392,0,17.127,0,18v17c0,1.104,0.896,2,2,2h58
			c1.104,0,2-0.896,2-2V18C62,17.127,61.438,16.393,60.657,16.119L60.657,16.119z" class="si-harmony-box-upload-main si-harmony-box-upload-thick si-harmony-box-upload-thick-stroke si-harmony-box-upload-stroke si-harmony-stroke si-harmony-thick-stroke si-harmony-main si-harmony-main-fill si-harmony-fill"></path><path fill-opacity="1" fill="#9ca5b8" d="M39.085,19.144H23.196c-1.098,0-1.186-0.987-1.186-2.092h18.082
			C40.093,18.156,40.183,19.144,39.085,19.144L39.085,19.144z" class="si-harmony-box-upload-handle si-harmony-box-upload-fill si-harmony-fill si-harmony-inner-fill"></path><path fill-opacity="1" fill="#e6f38f" stroke="#58595B" d="M0.917,16.583h59.5" class="si-harmony-box-upload-main si-harmony-box-upload-thin si-harmony-box-upload-thin-stroke si-harmony-box-upload-stroke si-harmony-stroke si-harmony-thin-stroke si-harmony-main si-harmony-main-fill si-harmony-fill"></path><path fill-opacity="1" fill="#9ca5b8" d="M54.961,4.198c0-0.569-0.462-1.031-1.033-1.031H32.625L37,9h-3
			v7h-6V9h-3l4.375-5.833H8.072c-0.571,0-1.033,0.462-1.033,1.031L5,16.875h52L54.961,4.198L54.961,4.198z" class="si-harmony-box-upload-inner si-harmony-box-upload-fill si-harmony-fill si-harmony-inner-fill"></path></g></g></svg>
