
<svg viewBox="0 0 63 44" version="1.1" xmlns="http://www.w3.org/2000/svg" xmlns:xlink="http://www.w3.org/1999/xlink" class="si-harmony-hamburger"><title class="">Hamburger</title><defs class=""></defs><g stroke="none" stroke-width="1" fill="none" fill-rule="evenodd" class=""><g transform="translate(2.000000, 2.000000)" stroke="#58595B" class=""><g class=""><path fill-opacity="1" fill="#e6f38f" stroke-opacity="1" stroke="#585952" d="M56.242,15.053 L54.885,15.053 C54.318,6.331 50.875,-0.083 30,-0.083 C9.125,-0.083 5.683,6.331 5.115,15.053 L4,15.053 C1.228,15.053 -0.021,17.128 -0.021,19.689 L-0.021,20.462 C-0.021,23.023 1.228,25.097 4,25.097 L5.072,25.097 C5.497,34.207 8.516,41 30,41 C51.484,41 54.503,34.207 54.928,25.097 L56.242,25.097 C59.016,25.097 60,23.023 60,20.462 L60,19.689 C60,17.128 59.017,15.053 56.242,15.053 L56.242,15.053 Z" stroke-width="2" class="si-harmony-hamburger-main si-harmony-hamburger-thick si-harmony-hamburger-thick-stroke si-harmony-hamburger-stroke si-harmony-stroke si-harmony-thick-stroke si-harmony-main si-harmony-main-fill si-harmony-fill"></path><path d="M5,24.5 L7.999,24.5 L12.126,27.5 L17,24.5 L19.999,24.5 L29,28.5 L38.125,24.5 L41,24.5 L46.125,27.625 L51,24.5 L55,24.5" class="si-harmony-hamburger-vegetable si-harmony-hamburger-thin si-harmony-hamburger-thin-stroke si-harmony-hamburger-stroke si-harmony-stroke si-harmony-thin-stroke"></path><path d="M5.115,15.428 L55,15.428" class="si-harmony-hamburger-meat si-harmony-hamburger-thin si-harmony-hamburger-thin-stroke si-harmony-hamburger-stroke si-harmony-stroke si-harmony-thin-stroke"></path><path d="M19,4.5 L20.958,4.5" class="si-harmony-hamburger-nut si-harmony-hamburger-thin si-harmony-hamburger-thin-stroke si-harmony-hamburger-stroke si-harmony-stroke si-harmony-thin-stroke"></path><path d="M38,4.5 L39.958,4.5" class="si-harmony-hamburger-nut si-harmony-hamburger-thin si-harmony-hamburger-thin-stroke si-harmony-hamburger-stroke si-harmony-stroke si-harmony-thin-stroke"></path><path d="M24,2.5 L25.958,2.5" class="si-harmony-hamburger-nut si-harmony-hamburger-thin si-harmony-hamburger-thin-stroke si-harmony-hamburger-stroke si-harmony-stroke si-harmony-thin-stroke"></path><path d="M33,2.5 L34.958,2.5" class="si-harmony-hamburger-nut si-harmony-hamburger-thin si-harmony-hamburger-thin-stroke si-harmony-hamburger-stroke si-harmony-stroke si-harmony-thin-stroke"></path><path d="M28,1.5 L29.958,1.5" class="si-harmony-hamburger-nut si-harmony-hamburger-thin si-harmony-hamburger-thin-stroke si-harmony-hamburger-stroke si-harmony-stroke si-harmony-thin-stroke"></path><path d="M22,6.5 L23.958,6.5" class="si-harmony-hamburger-nut si-harmony-hamburger-thin si-harmony-hamburger-thin-stroke si-harmony-hamburger-stroke si-harmony-stroke si-harmony-thin-stroke"></path><path d="M28,5.5 L29.958,5.5" class="si-harmony-hamburger-nut si-harmony-hamburger-thin si-harmony-hamburger-thin-stroke si-harmony-hamburger-stroke si-harmony-stroke si-harmony-thin-stroke"></path><path d="M35,6.5 L36.958,6.5" class="si-harmony-hamburger-nut si-harmony-hamburger-thin si-harmony-hamburger-thin-stroke si-harmony-hamburger-stroke si-harmony-stroke si-harmony-thin-stroke"></path><path d="M7.625,24.531 L50.25,24.531" class="si-harmony-hamburger-meat si-harmony-hamburger-thin si-harmony-hamburger-thin-stroke si-harmony-hamburger-stroke si-harmony-stroke si-harmony-thin-stroke"></path></g><path d="M4.062,18.469 L13.938,18.469" class="si-harmony-hamburger-meat si-harmony-hamburger-thin si-harmony-hamburger-thin-stroke si-harmony-hamburger-stroke si-harmony-stroke si-harmony-thin-stroke"></path><path d="M11.062,21.438 L29.938,21.438" class="si-harmony-hamburger-meat si-harmony-hamburger-thin si-harmony-hamburger-thin-stroke si-harmony-hamburger-stroke si-harmony-stroke si-harmony-thin-stroke"></path><path d="M26.062,18.438 L42,18.438" class="si-harmony-hamburger-meat si-harmony-hamburger-thin si-harmony-hamburger-thin-stroke si-harmony-hamburger-stroke si-harmony-stroke si-harmony-thin-stroke"></path><path d="M43.062,21.438 L57.938,21.438" class="si-harmony-hamburger-meat si-harmony-hamburger-thin si-harmony-hamburger-thin-stroke si-harmony-hamburger-stroke si-harmony-stroke si-harmony-thin-stroke"></path></g></g></svg>