

<svg version="1.1" xmlns="http://www.w3.org/2000/svg" xmlns:xlink="http://www.w3.org/1999/xlink" x="0px" y="0px" viewBox="0 0 64 39" enable-background="new 0 0 64 39" xml:space="preserve" class="si-harmony-box-download"><title class="">Box-download</title><g class=""><g transform="translate(1.000000, 1.000000)" class=""><path fill-opacity="1" stroke-opacity="1" fill="#e6f38f" stroke="#585952" stroke-width="2" d="M60.657,16.119L58,2
			c0-1.104-0.896-2-2-2H6C4.896,0,4,0.896,4,2L1.343,16.119C0.563,16.392,0,17.127,0,18v17c0,1.104,0.896,2,2,2h58
			c1.104,0,2-0.896,2-2V18C62,17.127,61.438,16.393,60.657,16.119L60.657,16.119z" class="si-harmony-box-download-main si-harmony-box-download-thick si-harmony-box-download-thick-stroke si-harmony-box-download-stroke si-harmony-stroke si-harmony-thick-stroke si-harmony-main si-harmony-main-fill si-harmony-fill"></path><path fill-opacity="1" fill="#9ca5b8" d="M39.033,19.092H22.922c-0.969,0-0.964-0.987-0.964-2.092H40.04C40.041,18.104,40.131,19.092,39.033,19.092
			L39.033,19.092z" class="si-harmony-box-download-handle si-harmony-box-download-fill si-harmony-fill si-harmony-inner-fill"></path><path fill-opacity="1" fill="#e6f38f" stroke="#58595B" d="M0.917,16.583h59.5" class="si-harmony-box-download-main si-harmony-box-download-thin si-harmony-box-download-thin-stroke si-harmony-box-download-stroke si-harmony-stroke si-harmony-thin-stroke si-harmony-main si-harmony-main-fill si-harmony-fill"></path><path fill-opacity="1" fill="#9ca5b8" d="M54.147,3H34v5h3l-6,8l-6-8h3V3H7.853
			C7.276,3,6.809,3.467,6.809,4.043L4.75,16.875h52.5L55.191,4.043C55.191,3.467,54.725,3,54.147,3L54.147,3z" class="si-harmony-box-download-inner si-harmony-box-download-fill si-harmony-fill si-harmony-inner-fill"></path></g></g></svg>
