

<svg version="1.1" xmlns="http://www.w3.org/2000/svg" xmlns:xlink="http://www.w3.org/1999/xlink" x="0px" y="0px" viewBox="0 0 52 63" enable-background="new 0 0 52 63" xml:space="preserve" class="si-harmony-backpack"><title class="">Backpack</title><path fill-opacity="1" stroke-opacity="1" fill="#e6f38f" stroke="#585952" stroke-width="2" d="M32.996,7.919C32.952,4.09,29.839,1,26,1
	s-6.952,3.09-6.996,6.919C1.875,7.919,1,8.64,1,21c0,3.783,0.714,6.482,2,8.408V59c0,1.104,0.896,3,2,3h42c1.104,0,2-1.896,2-3
	V29.408c1.286-1.926,2-4.625,2-8.408C51,8.64,50.125,7.919,32.996,7.919L32.996,7.919z" class="si-harmony-backpack-main si-harmony-backpack-thick si-harmony-backpack-thick-stroke si-harmony-backpack-stroke si-harmony-stroke si-harmony-thick-stroke si-harmony-main si-harmony-main-fill si-harmony-fill"></path><path fill="none" stroke="#58595B" d="M42.5,53.142c0,6.399-7.389,5.812-16.5,5.812
	c-9.11,0-16.499,0.759-16.499-5.812C9.501,39.375,16.89,39,26,39C35.111,39,42.5,39.625,42.5,53.142L42.5,53.142z" class="si-harmony-backpack-pocket si-harmony-backpack-thin si-harmony-backpack-thin-stroke si-harmony-backpack-stroke si-harmony-stroke si-harmony-thin-stroke"></path><path fill-opacity="1" fill="#9ca5b8" d="M29.938,9h-7.875c0-2.175,1.763-3.938,3.938-3.938S29.938,6.825,29.938,9L29.938,9z" class="si-harmony-backpack-handle si-harmony-backpack-fill si-harmony-fill si-harmony-inner-fill"></path><path fill="none" stroke="#58595B" d="M14.583,8v17.921" class="si-harmony-backpack-strap si-harmony-backpack-thin si-harmony-backpack-thin-stroke si-harmony-backpack-stroke si-harmony-stroke si-harmony-thin-stroke"></path><path fill="none" stroke="#58595B" d="M37.583,8v17.921" class="si-harmony-backpack-strap si-harmony-backpack-thin si-harmony-backpack-thin-stroke si-harmony-backpack-stroke si-harmony-stroke si-harmony-thin-stroke"></path><rect x="12.5" y="26" fill="none" stroke="#58595B" width="4" height="3.083" class="si-harmony-backpack-lock si-harmony-backpack-thin si-harmony-backpack-thin-stroke si-harmony-backpack-stroke si-harmony-stroke si-harmony-thin-stroke"></rect><rect x="35.5" y="26" fill="none" stroke="#58595B" width="4" height="3.083" class="si-harmony-backpack-lock si-harmony-backpack-thin si-harmony-backpack-thin-stroke si-harmony-backpack-stroke si-harmony-stroke si-harmony-thin-stroke"></rect><path fill="none" stroke="#58595B" d="M14.5,29.417V50" class="si-harmony-backpack-strap si-harmony-backpack-thin si-harmony-backpack-thin-stroke si-harmony-backpack-stroke si-harmony-stroke si-harmony-thin-stroke"></path><path fill="none" stroke="#58595B" d="M37.5,29.417V50" class="si-harmony-backpack-strap si-harmony-backpack-thin si-harmony-backpack-thin-stroke si-harmony-backpack-stroke si-harmony-stroke si-harmony-thin-stroke"></path><path fill="none" stroke="#58595B" d="M13.062,50.5H16" class="si-harmony-backpack-strap si-harmony-backpack-thin si-harmony-backpack-thin-stroke si-harmony-backpack-stroke si-harmony-stroke si-harmony-thin-stroke"></path><path fill="none" stroke="#58595B" d="M36.062,50.5H39" class="si-harmony-backpack-strap si-harmony-backpack-thin si-harmony-backpack-thin-stroke si-harmony-backpack-stroke si-harmony-stroke si-harmony-thin-stroke"></path><path fill="none" stroke="#58595B" d="M17.166,55.5H35" class="si-harmony-backpack-line si-harmony-backpack-thin si-harmony-backpack-thin-stroke si-harmony-backpack-stroke si-harmony-stroke si-harmony-thin-stroke"></path><path fill="none" stroke="#58595B" d="M6.583,56.083v5.584" class="si-harmony-backpack-strap si-harmony-backpack-thin si-harmony-backpack-thin-stroke si-harmony-backpack-stroke si-harmony-stroke si-harmony-thin-stroke"></path><path fill="none" stroke="#58595B" d="M45.583,56.083v5.584" class="si-harmony-backpack-strap si-harmony-backpack-thin si-harmony-backpack-thin-stroke si-harmony-backpack-stroke si-harmony-stroke si-harmony-thin-stroke"></path><circle fill="none" stroke="#58595B" cx="25.001" cy="18.499" r="2.499" class="si-harmony-backpack-circle si-harmony-backpack-thin si-harmony-backpack-thin-stroke si-harmony-backpack-stroke si-harmony-stroke si-harmony-thin-stroke"></circle><path fill="none" stroke="#58595B" d="M51,21c0,14.426-11.193,12.502-25,12.502C12.193,33.502,1,35.426,1,21" class="si-harmony-backpack-lid si-harmony-backpack-thin si-harmony-backpack-thin-stroke si-harmony-backpack-stroke si-harmony-stroke si-harmony-thin-stroke"></path></svg>
