

<svg version="1.1" xmlns="http://www.w3.org/2000/svg" xmlns:xlink="http://www.w3.org/1999/xlink" x="0px" y="0px" viewBox="0 0 51 64" enable-background="new 0 0 51 64" xml:space="preserve" class="si-harmony-book-bookmark"><title class="">Book-bookmark</title><g class=""><g transform="translate(1.000000, 1.000000)" class=""><path fill-opacity="1" stroke-opacity="1" fill="#e6f38f" stroke="#585952" stroke-width="2" d="M46.997,7V4
			c0-1.657-1.344-3-3-3h-41c-1.656,0-3,1.343-3,3C-0.003,4.127,0,58,0,58c0,2.206,1.795,4,4,4h41.997c1.656,0,3-1.343,3-3V10
			C48.997,8.343,47.935,7,46.997,7L46.997,7z" class="si-harmony-book-bookmark-main si-harmony-book-bookmark-thick si-harmony-book-bookmark-thick-stroke si-harmony-book-bookmark-stroke si-harmony-stroke si-harmony-thick-stroke si-harmony-main si-harmony-main-fill si-harmony-fill"></path><path fill="none" stroke="#58595B" d="M6.56,7v55" class="si-harmony-book-bookmark-line1 si-harmony-book-bookmark-line si-harmony-book-bookmark-thin si-harmony-book-bookmark-thin-stroke si-harmony-book-bookmark-stroke si-harmony-stroke si-harmony-thin-stroke"></path><path fill-opacity="1" fill="#e6f38f" stroke="#58595B" d="M47,7.5H3.351c-2.289,0-2.976-1.595-2.976-3.562
			l0,0C0.375,1.97,1.354,1,2.997,1" class="si-harmony-book-bookmark-main si-harmony-book-bookmark-thin si-harmony-book-bookmark-thin-stroke si-harmony-book-bookmark-stroke si-harmony-stroke si-harmony-thin-stroke si-harmony-main si-harmony-main-fill si-harmony-fill"></path><path fill="none" stroke="#58595B" d="M4.166,3.5H43" class="si-harmony-book-bookmark-line2 si-harmony-book-bookmark-line si-harmony-book-bookmark-thin si-harmony-book-bookmark-thin-stroke si-harmony-book-bookmark-stroke si-harmony-stroke si-harmony-thin-stroke"></path><path fill="none" stroke="#58595B" d="M4.166,5.5H43" class="si-harmony-book-bookmark-line2 si-harmony-book-bookmark-line si-harmony-book-bookmark-thin si-harmony-book-bookmark-thin-stroke si-harmony-book-bookmark-stroke si-harmony-stroke si-harmony-thin-stroke"></path><path fill-opacity="1" fill="#9ca5b8" d="M41,26c0,1.104-0.25,2-1,2l-3-9l-3,9c-1.104,0-1-0.896-1-2V8h8
			V26L41,26z" class="si-harmony-book-bookmark-bookmark si-harmony-book-bookmark-fill si-harmony-fill si-harmony-inner-fill"></path></g></g></svg>
