

<svg version="1.1" xmlns="http://www.w3.org/2000/svg" xmlns:xlink="http://www.w3.org/1999/xlink" x="0px" y="0px" viewBox="0 0 65 65" enable-background="new 0 0 65 65" xml:space="preserve" class="si-harmony-sword"><title class="">Sword</title><g class=""><g transform="translate(1.000000, 2.000000)" class=""><path fill-opacity="1" stroke-opacity="1" fill="#e6f38f" stroke="#585952" stroke-width="2" d="M22.369,50.001
			c-0.924-0.924-2.045-1.47-3.104-1.61L60.953,6.703C61.734,5.923,62,0,62,0s-5.923,0.266-6.704,1.047L13.608,42.735
			c-0.14-1.059-0.687-2.18-1.61-3.104c-1.822-1.822-2.993-3.606-4.36-2.239c-1.367,1.367-2.411,5.367-0.589,7.189
			c0.924,0.924,2.238,2.475,0.274,4.438l-7.11,8.524c-0.781,0.781,0.789,2.203,1.414,2.829c0.626,0.625,2.048,2.194,2.829,1.414
			l8.524-7.111c2.141-2.141,3.515-0.648,4.438,0.275c1.822,1.822,5.822,0.778,7.189-0.589S24.191,51.824,22.369,50.001
			L22.369,50.001z" class="si-harmony-sword-sword si-harmony-sword-thick si-harmony-sword-thick-stroke si-harmony-sword-stroke si-harmony-stroke si-harmony-thick-stroke si-harmony-main-fill si-harmony-fill si-harmony-main"></path><path fill="none" stroke="#58595B" d="M57.653,6.35L21.19,42.813" class="si-harmony-sword-line1 si-harmony-sword-line si-harmony-sword-thin si-harmony-sword-thin-stroke si-harmony-sword-stroke si-harmony-stroke si-harmony-thin-stroke"></path><path fill="none" stroke="#58595B" d="M7.698,48.852l5.422,5.421" class="si-harmony-sword-line2 si-harmony-sword-line si-harmony-sword-thin si-harmony-sword-thin-stroke si-harmony-sword-stroke si-harmony-stroke si-harmony-thin-stroke"></path><path fill="none" stroke="#58595B" d="M4.87,51.68l5.422,5.422" class="si-harmony-sword-line2 si-harmony-sword-line si-harmony-sword-thin si-harmony-sword-thin-stroke si-harmony-sword-stroke si-harmony-stroke si-harmony-thin-stroke"></path><path fill="none" stroke="#58595B" d="M2.889,54.901l4.183,4.181" class="si-harmony-sword-line2 si-harmony-sword-line si-harmony-sword-thin si-harmony-sword-thin-stroke si-harmony-sword-stroke si-harmony-stroke si-harmony-thin-stroke"></path></g></g></svg>
