

<svg version="1.1" xmlns="http://www.w3.org/2000/svg" xmlns:xlink="http://www.w3.org/1999/xlink" x="0px" y="0px" viewBox="0 0 39 67" enable-background="new 0 0 39 67" xml:space="preserve" class="si-harmony-owl"><title class="">Owl</title><g class=""><g transform="translate(1.000000, 4.000000)" class=""><path fill-opacity="1" stroke-opacity="1" fill="#e6f38f" stroke="#585952" stroke-width="2" stroke-linejoin="round" d="M36,0
			l-7.08,10.228C26.135,8.207,22.719,7,19.015,7h-2.112c-3.68,0-7.075,1.189-9.851,3.187L0,0v39.098C0,48.432,7.568,56,16.902,56
			h2.112c9.334,0,16.902-7.568,16.902-16.902L36,0L36,0z" class="si-harmony-owl-main si-harmony-owl-thick si-harmony-owl-thick-stroke si-harmony-owl-stroke si-harmony-stroke si-harmony-thick-stroke si-harmony-main si-harmony-main-fill si-harmony-fill"></path><circle fill="none" stroke="#58595B" stroke-linejoin="round" cx="10.083" cy="19.083" r="7.083" class="si-harmony-owl-eyes si-harmony-owl-thin si-harmony-owl-thin-stroke si-harmony-owl-stroke si-harmony-stroke si-harmony-thin-stroke"></circle><circle fill-opacity="1" fill="#9ca5b8" cx="10.458" cy="19.458" r="2.458" class="si-harmony-owl-eyes si-harmony-owl-fill si-harmony-fill si-harmony-inner-fill"></circle><circle fill-opacity="1" fill="#9ca5b8" cx="24.458" cy="19.458" r="2.458" class="si-harmony-owl-eyes si-harmony-owl-fill si-harmony-fill si-harmony-inner-fill"></circle><circle fill="none" stroke="#58595B" stroke-linejoin="round" cx="25.042" cy="19.042" r="7.042" class="si-harmony-owl-eyes si-harmony-owl-thin si-harmony-owl-thin-stroke si-harmony-owl-stroke si-harmony-stroke si-harmony-thin-stroke"></circle><path fill="none" stroke="#58595B" stroke-linejoin="round" d="M-0.172,32.136
			c8.396,1.718,14.709,9.146,14.709,18.047c0,2.033-0.328,3.989-0.938,5.818" class="si-harmony-owl-wing si-harmony-owl-thin si-harmony-owl-thin-stroke si-harmony-owl-stroke si-harmony-stroke si-harmony-thin-stroke"></path><path fill="none" stroke="#58595B" stroke-linejoin="round" d="M22.435,56.001
			c-0.606-1.823-0.935-3.772-0.935-5.799c0-8.755,6.128-16.078,14.329-17.915" class="si-harmony-owl-wing si-harmony-owl-thin si-harmony-owl-thin-stroke si-harmony-owl-stroke si-harmony-stroke si-harmony-thin-stroke"></path><path fill="none" stroke="#58595B" stroke-linejoin="round" d="M9.5,44v10.583" class="si-harmony-owl-line si-harmony-owl-thin si-harmony-owl-thin-stroke si-harmony-owl-stroke si-harmony-stroke si-harmony-thin-stroke"></path><path fill="none" stroke="#58595B" stroke-linejoin="round" d="M26.5,44v10.583" class="si-harmony-owl-line si-harmony-owl-thin si-harmony-owl-thin-stroke si-harmony-owl-stroke si-harmony-stroke si-harmony-thin-stroke"></path><path fill="none" stroke="#58595B" stroke-linejoin="round" d="M31.5,39v10.917" class="si-harmony-owl-line si-harmony-owl-thin si-harmony-owl-thin-stroke si-harmony-owl-stroke si-harmony-stroke si-harmony-thin-stroke"></path><path fill="none" stroke="#58595B" stroke-linejoin="round" d="M4.5,39v10.917" class="si-harmony-owl-line si-harmony-owl-thin si-harmony-owl-thin-stroke si-harmony-owl-stroke si-harmony-stroke si-harmony-thin-stroke"></path><path fill="none" stroke="#58595B" stroke-linejoin="round" d="M14.011,25.5l3.875,6
			l3.697-6" class="si-harmony-owl-mouth si-harmony-owl-thin si-harmony-owl-thin-stroke si-harmony-owl-stroke si-harmony-stroke si-harmony-thin-stroke"></path><path stroke-opacity="1" fill="none" stroke="#585952" stroke-width="2" stroke-linejoin="round" d="
			M15.062,55.938v6.229" class="si-harmony-owl-leg si-harmony-owl-thick si-harmony-owl-thick-stroke si-harmony-owl-stroke si-harmony-stroke si-harmony-thick-stroke"></path><path stroke-opacity="1" fill="none" stroke="#585952" stroke-width="2" stroke-linejoin="round" d="
			M21.062,55.938v6.229" class="si-harmony-owl-leg si-harmony-owl-thick si-harmony-owl-thick-stroke si-harmony-owl-stroke si-harmony-stroke si-harmony-thick-stroke"></path><path fill-opacity="1" stroke-opacity="1" fill="#e6f38f" stroke="#585952" stroke-width="2" stroke-linejoin="round" d="
			M25,59.459C25,61.415,25.817,62,20.875,62h-7.833c-2.278,0-2.125-0.586-2.125-2.541l0,0c0-1.957-0.153-3.542,2.125-3.542h7.833
			C25.817,55.917,25,57.499,25,59.459L25,59.459L25,59.459z" class="si-harmony-owl-leg si-harmony-owl-thick si-harmony-owl-thick-stroke si-harmony-owl-stroke si-harmony-stroke si-harmony-thick-stroke si-harmony-main-fill si-harmony-fill si-harmony-main"></path></g></g></svg>
