
<svg viewBox="0 0 62 62" version="1.1" xmlns="http://www.w3.org/2000/svg" xmlns:xlink="http://www.w3.org/1999/xlink" class="si-harmony-website-checked"><title class="">Website-checked</title><defs class=""></defs><g stroke="none" stroke-width="1" fill="none" fill-rule="evenodd" class=""><g transform="translate(1.000000, 1.000000)" class=""><path fill-opacity="1" fill="#e6f38f" stroke-opacity="1" d="M60,57 C60,58.657 58.657,60 57,60 L3,60 C1.343,60 0,58.657 0,57 L0,3 C0,1.343 1.343,0 3,0 L57,0 C58.657,0 60,1.343 60,3 L60,57 L60,57 Z" stroke="#585952" stroke-width="2" class="si-harmony-website-checked-main si-harmony-website-checked-thick si-harmony-website-checked-thick-stroke si-harmony-website-checked-stroke si-harmony-stroke si-harmony-thick-stroke si-harmony-main si-harmony-main-fill si-harmony-fill"></path><path d="M0.125,10.5 L60.125,10.5" stroke="#58595B" class="si-harmony-website-checked-line si-harmony-website-checked-thin si-harmony-website-checked-thin-stroke si-harmony-website-checked-stroke si-harmony-stroke si-harmony-thin-stroke"></path><circle fill-opacity="1" fill="#9ca5b8" stroke="#58595B" cx="6.084" cy="5.084" r="2.084" class="si-harmony-website-checked-button1 si-harmony-website-checked-button si-harmony-website-checked-thin si-harmony-website-checked-thin-stroke si-harmony-website-checked-stroke si-harmony-stroke si-harmony-thin-stroke si-harmony-fill si-harmony-inner-fill"></circle><circle stroke="#58595B" cx="14.084" cy="5.084" r="2.084" class="si-harmony-website-checked-button2 si-harmony-website-checked-button si-harmony-website-checked-thin si-harmony-website-checked-thin-stroke si-harmony-website-checked-stroke si-harmony-stroke si-harmony-thin-stroke"></circle><circle stroke="#58595B" cx="22.084" cy="5.084" r="2.084" class="si-harmony-website-checked-button3 si-harmony-website-checked-button si-harmony-website-checked-thin si-harmony-website-checked-thin-stroke si-harmony-website-checked-stroke si-harmony-stroke si-harmony-thin-stroke"></circle><path d="M8.125,24.438 L37.875,24.438" stroke="#58595B" class="si-harmony-website-checked-text si-harmony-website-checked-thin si-harmony-website-checked-thin-stroke si-harmony-website-checked-stroke si-harmony-stroke si-harmony-thin-stroke"></path><path d="M8.125,32.438 L52,32.438" stroke="#58595B" class="si-harmony-website-checked-text si-harmony-website-checked-thin si-harmony-website-checked-thin-stroke si-harmony-website-checked-stroke si-harmony-stroke si-harmony-thin-stroke"></path><path d="M8.125,41.438 L52,41.438" stroke="#58595B" class="si-harmony-website-checked-text si-harmony-website-checked-thin si-harmony-website-checked-thin-stroke si-harmony-website-checked-stroke si-harmony-stroke si-harmony-thin-stroke"></path><path fill-opacity="1" d="M57.616,48.37 L55.526,46.294 C55.142,45.912 54.519,45.912 54.134,46.294 L47.869,52.52 L45.78,50.445 C45.395,50.063 44.772,50.063 44.387,50.445 L42.298,52.52 C41.914,52.902 41.914,53.521 42.298,53.903 L45.08,56.667 C45.081,56.668 45.081,56.67 45.082,56.671 L47.172,58.746 C47.557,59.128 48.18,59.128 48.565,58.746 L57.615,49.754 C58,49.37 58,48.752 57.616,48.37 L57.616,48.37 L57.616,48.37 Z" fill="#9ca5b8" class="si-harmony-website-checked-checked si-harmony-website-checked-fill si-harmony-fill si-harmony-inner-fill"></path></g></g></svg>