

<svg version="1.1" xmlns="http://www.w3.org/2000/svg" xmlns:xlink="http://www.w3.org/1999/xlink" x="0px" y="0px" viewBox="0 0 64 54" enable-background="new 0 0 64 54" xml:space="preserve" class="si-harmony-message-dot"><title class="">Message-dot</title><g class=""><g transform="translate(1.000000, 1.000000)" class=""><path fill-opacity="1" stroke-opacity="1" fill="#e6f38f" stroke="#585952" stroke-width="2" stroke-linejoin="round" d="
			M53.906,37.729c5.029-4.009,8.096-9.342,8.094-15.195C61.996,10.085,48.113-0.004,30.992,0.002
			C13.873,0.007-0.004,10.106,0,22.555c0.004,12.451,13.887,22.538,31.008,22.532c5.043-0.002,9.803-0.884,14.012-2.44l13.356,6.558
			C58.376,49.205,56.252,43.54,53.906,37.729L53.906,37.729z" class="si-harmony-message-dot-message-bubble si-harmony-message-dot-thick si-harmony-message-dot-thick-stroke si-harmony-message-dot-stroke si-harmony-stroke si-harmony-thick-stroke si-harmony-fill si-harmony-main si-harmony-main-fill"></path><ellipse fill-opacity="1" fill="#9ca5b8" cx="18.869" cy="22.882" rx="2.869" ry="2.882" class="si-harmony-message-dot-dot-left si-harmony-message-dot-dot si-harmony-message-dot-fill si-harmony-fill si-harmony-inner-fill"></ellipse><path fill-opacity="1" fill="#9ca5b8" d="M33.919,22.958c0,1.612-1.312,2.918-2.932,2.918
			c-1.619,0.002-2.933-1.303-2.934-2.914c0-1.613,1.312-2.919,2.932-2.921C32.605,20.04,33.919,21.345,33.919,22.958L33.919,22.958z
			" class="si-harmony-message-dot-dot-middle si-harmony-message-dot-dot si-harmony-message-dot-fill si-harmony-fill si-harmony-inner-fill"></path><ellipse fill-opacity="1" fill="#9ca5b8" cx="42.932" cy="22.886" rx="2.932" ry="2.886" class="si-harmony-message-dot-dot-right si-harmony-message-dot-dot si-harmony-message-dot-fill si-harmony-fill si-harmony-inner-fill"></ellipse></g></g></svg>
