<!--?xml version="1.0" encoding="UTF-8" standalone="no"?-->
<svg viewBox="0 0 16 23" version="1.1" xmlns="http://www.w3.org/2000/svg" xmlns:xlink="http://www.w3.org/1999/xlink" class="si-nimble-lock">
    <!-- Generator: Sketch 3.0.3 (7891) - http://www.bohemiancoding.com/sketch -->
    <title class="">Lock</title>
    
    <defs class=""></defs>
    <g stroke="none" stroke-width="1" fill="none" fill-rule="evenodd" class="">
        <g transform="translate(1.000000, 1.000000)" stroke="#414042" stroke-width="2" class="">
            <path d="M1,10 L1,6.136 C1,2.747 3.687,0 7,0 L7,0 C10.314,0 13,2.747 13,6.136 L13,10" class="si-nimble-lock-shackle si-nimble-lock-thick si-nimble-lock-stroke si-nimble-stroke" style=""></path>
            <path d="M14,20 C14,20.553 13.553,21 13,21 L1,21 C0.447,21 0,20.553 0,20 L0,11 C0,10.448 0.447,10 1,10 L13,10 C13.553,10 14,10.448 14,11 L14,20 L14,20 Z" class="si-nimble-lock-main si-nimble-lock-thick si-nimble-lock-stroke si-nimble-stroke" style=""></path>
            <path d="M8,15 C8,14.448 7.553,14 7,14 C6.447,14 6,14.448 6,15 C6,15.468 6.328,15.843 6.762,15.952 L6,18 L8,18 L7.238,15.952 C7.672,15.843 8,15.468 8,15 L8,15 Z" class="si-nimble-lock-keyway si-nimble-lock-thick si-nimble-lock-stroke si-nimble-stroke" style=""></path>
        </g>
    </g>
</svg>