<!--?xml version="1.0" encoding="UTF-8" standalone="no"?-->
<svg viewBox="0 0 24 23" version="1.1" xmlns="http://www.w3.org/2000/svg" xmlns:xlink="http://www.w3.org/1999/xlink" class="si-nimble-flower">
    <!-- Generator: Sketch 3.0.3 (7891) - http://www.bohemiancoding.com/sketch -->
    <title class="">Flower</title>
    
    <defs class=""></defs>
    <g stroke="none" stroke-width="1" fill="none" fill-rule="evenodd" class="">
        <g transform="translate(1.000000, 1.000000)" stroke="#414042" stroke-width="2" class="">
            <path d="M10.539,21 C8.404,21 6.604,20.01 6.354,18.697 L6.143,17.59 L5.084,17.977 C4.86,18.059 4.612,18.101 4.348,18.101 C3.111,18.101 1.695,17.156 0.827,15.747 C0.12,14.601 -0.13,13.364 0.139,12.353 C0.264,11.89 0.502,11.5 0.832,11.226 L1.715,10.492 L0.832,9.756 C0.504,9.483 0.266,9.094 0.142,8.631 C-0.129,7.619 0.122,6.382 0.829,5.235 C1.695,3.826 3.11,2.88 4.35,2.88 C4.613,2.88 4.861,2.923 5.086,3.004 L6.145,3.388 L6.354,2.284 C6.604,0.971 8.403,-0.02 10.539,-0.02 C12.676,-0.02 14.475,0.971 14.722,2.286 L14.931,3.394 L15.991,3.007 C16.218,2.925 16.466,2.882 16.729,2.882 C17.967,2.882 19.382,3.828 20.251,5.237 C20.957,6.383 21.206,7.623 20.936,8.633 C20.813,9.095 20.575,9.483 20.248,9.755 L19.367,10.489 L20.248,11.224 C20.576,11.499 20.815,11.888 20.938,12.351 C21.208,13.363 20.958,14.599 20.25,15.745 C19.384,17.154 17.97,18.1 16.732,18.1 C16.468,18.1 16.218,18.057 15.989,17.974 L14.931,17.588 L14.721,18.695 C14.474,20.009 12.676,21 10.539,21 L10.539,21 Z" class="si-nimble-flower-petal si-nimble-flower-thick si-nimble-flower-stroke si-nimble-stroke" style=""></path>
            <ellipse cx="10.456" cy="10.541" rx="2.456" ry="2.541" class="si-nimble-flower-stigma si-nimble-flower-thick si-nimble-flower-stroke si-nimble-stroke" style=""></ellipse>
        </g>
    </g>
</svg>