<!--?xml version="1.0" encoding="UTF-8" standalone="no"?-->
<svg viewBox="0 0 25 25" version="1.1" xmlns="http://www.w3.org/2000/svg" xmlns:xlink="http://www.w3.org/1999/xlink" class="si-nimble-spanner">
    <!-- Generator: Sketch 3.0.3 (7891) - http://www.bohemiancoding.com/sketch -->
    <title class="">Spanner</title>
    
    <defs class=""></defs>
    <g stroke="none" stroke-width="1" fill="none" fill-rule="evenodd" class="">
        <path d="M11.104,15.626 C11.208,15.58 11.068,15.761 11.154,15.675 L16.644,10.186 C18.369,10.957 20.586,10.485 21.853,9.219 C22.823,8.249 23.176,6.873 22.941,5.506 C22.941,5.506 19.645,9.069 17.288,6.713 C14.931,4.356 18.498,1.06 18.498,1.06 C17.13,0.825 15.753,1.177 14.782,2.148 C13.516,3.415 13.045,5.632 13.815,7.358 L8.326,12.847 C8.24,12.932 8.421,12.793 8.375,12.897 C6.634,12.089 4.398,12.532 3.116,13.814 C2.146,14.784 1.793,16.16 2.027,17.527 C2.027,17.527 5.324,13.964 7.681,16.32 C10.038,18.678 6.471,21.973 6.471,21.973 C7.838,22.208 9.216,21.856 10.187,20.885 C11.469,19.603 11.911,17.367 11.104,15.626 L11.104,15.626 Z" stroke="#414042" stroke-width="2" class="si-nimble-spanner-spanner si-nimble-spanner-thick si-nimble-spanner-stroke si-nimble-stroke" style=""></path>
    </g>
</svg>