<!--?xml version="1.0" encoding="utf-8"?-->
<!-- Generator: Adobe Illustrator 17.0.0, SVG Export Plug-In . SVG Version: 6.00 Build 0)  -->

<svg version="1.1" xmlns="http://www.w3.org/2000/svg" xmlns:xlink="http://www.w3.org/1999/xlink" x="0px" y="0px" viewBox="0 0 25 23" enable-background="new 0 0 25 23" xml:space="preserve" class="si-nimble-music-note">
<title class="">Music-note</title>

<g class="">
	<path fill="none" stroke="#414042" stroke-width="2" d="M22,15.662
		C21.981,15.571,22,2,22,2c0-0.553-0.447-1-1-1L8,4C7.447,4,7,4.447,7,5v10.034c-0.675-0.133-1.408-0.152-2.164-0.001
		c-2.454,0.49-4.136,2.425-3.758,4.317c0.379,1.896,2.676,3.033,5.129,2.542c2.259-0.451,3.842-2.125,3.787-3.866
		C9.995,18.017,10,18.009,10,18V8.591l9-2.162v6.69c-0.671-0.127-1.398-0.144-2.149,0.006c-2.465,0.493-4.156,2.429-3.778,4.321
		c0.379,1.896,2.686,3.032,5.149,2.538C20.688,19.492,22,17.906,22,15.662L22,15.662z" class="si-nimble-music-note-music-note si-nimble-music-note-thick si-nimble-music-note-stroke si-nimble-stroke" style=""></path>
</g>
</svg>
