<!--?xml version="1.0" encoding="UTF-8" standalone="no"?-->
<svg width="64px" height="58px" viewBox="0 0 64 58" version="1.1" xmlns="http://www.w3.org/2000/svg" xmlns:xlink="http://www.w3.org/1999/xlink" class="si-outline-swimming-ladder">
    <!-- Generator: Sketch 3.0.3 (7891) - http://www.bohemiancoding.com/sketch -->
    <title class="">Swimming-ladder</title>
    
    <defs class=""></defs>
    <g id="Page-1" stroke="none" stroke-width="1" fill="none" fill-rule="evenodd" class="">
        <g id="Swimming-ladder" transform="translate(1.000000, 1.000000)" stroke="#6B6C6E" stroke-width="2" class="">
            <path d="M21.9,35.1 L39.9,35.1" id="Shape" class="si-outline-swimming-ladder-step si-outline-swimming-ladder-stroke si-outline-stroke" style=""></path>
            <path d="M22.1,19 L39.8,19" id="Shape" class="si-outline-swimming-ladder-step si-outline-swimming-ladder-stroke si-outline-stroke" style=""></path>
            <path d="M22.1,27.1 L39.8,27.1" id="Shape" class="si-outline-swimming-ladder-step si-outline-swimming-ladder-stroke si-outline-stroke" style=""></path>
            <path d="M39.9,11 L21.9,11" id="Shape" class="si-outline-swimming-ladder-step si-outline-swimming-ladder-stroke si-outline-stroke" style=""></path>
            <path d="M21.9,38.8 L21.9,4 C21.9,1.8 23.7,0 25.9,0 C28.1,0 29.9,1.8 29.9,4" id="Shape" class="si-outline-swimming-ladder-rail si-outline-swimming-ladder-stroke si-outline-stroke" style=""></path>
            <path d="M39.9,39.1 L39.9,4 C39.9,1.8 41.7,0 43.9,0 C46.1,0 47.9,1.8 47.9,4" id="Shape" class="si-outline-swimming-ladder-rail si-outline-swimming-ladder-stroke si-outline-stroke" style=""></path>
            <path d="M-0.1,41.1 C-0.1,41.1 3,36.7 8.9,41.1 C14.8,45.5 17.9,41.1 17.9,41.1 C17.9,41.1 21.1,36.7 26.9,41.1 C32.7,45.5 35.9,41.1 35.9,41.1 C35.9,41.1 39.2,36.8 44.9,41.1 C50.7,45.4 53.9,41.1 53.9,41.1 C53.9,41.1 57.7,36.7 61.9,41.1" id="Shape" class="si-outline-swimming-ladder-wave si-outline-swimming-ladder-stroke si-outline-stroke" style=""></path>
            <path d="M-0.1,47.1 C-0.1,47.1 3,42.7 8.9,47.1 C14.8,51.5 17.9,47.1 17.9,47.1 C17.9,47.1 21.1,42.7 26.9,47.1 C32.7,51.5 35.9,47.1 35.9,47.1 C35.9,47.1 39.2,42.8 44.9,47.1 C50.7,51.4 53.9,47.1 53.9,47.1 C53.9,47.1 57.7,42.7 61.9,47.1" id="Shape" class="si-outline-swimming-ladder-wave si-outline-swimming-ladder-stroke si-outline-stroke" style=""></path>
            <path d="M-0.1,53.1 C-0.1,53.1 3,48.7 8.9,53.1 C14.8,57.5 17.9,53.1 17.9,53.1 C17.9,53.1 21.1,48.7 26.9,53.1 C32.7,57.5 35.9,53.1 35.9,53.1 C35.9,53.1 39.2,48.8 44.9,53.1 C50.7,57.4 53.9,53.1 53.9,53.1 C53.9,53.1 57.7,48.7 61.9,53.1" id="Shape" class="si-outline-swimming-ladder-wave si-outline-swimming-ladder-stroke si-outline-stroke" style=""></path>
        </g>
    </g>
</svg>