<!--?xml version="1.0" encoding="utf-8"?-->
<!-- Generator: Adobe Illustrator 17.0.0, SVG Export Plug-In . SVG Version: 6.00 Build 0)  -->

<svg version="1.1" id="Layer_1" xmlns="http://www.w3.org/2000/svg" xmlns:xlink="http://www.w3.org/1999/xlink" x="0px" y="0px" width="64px" height="46px" viewBox="0 0 64 46" enable-background="new 0 0 64 46" xml:space="preserve" class="si-outline-dashboard">
<title class="">Dashboard</title>

<g id="Page-1" class="">
	<g id="Dashboard" transform="translate(1.000000, 1.000000)" class="">
		<path id="Shape_1_" fill="none" stroke="#6B6C6E" stroke-width="2" d="M62,31.2c0,17.1-62,16.7-62,0
			C0,14,13.9,0,31,0S62,14,62,31.2L62,31.2z" class="si-outline-dashboard-board si-outline-dashboard-stroke si-outline-stroke" style=""></path>
		<path id="Shape" fill="none" stroke="#6B6C6E" stroke-width="2" d="M28,27.5c0.6-6.4,1.7-15.5,3-15.5
			s2.4,9.1,3,15.5" class="si-outline-dashboard-needle si-outline-dashboard-stroke si-outline-stroke" style=""></path>
		<path id="Shape_5_" fill="none" stroke="#6B6C6E" stroke-width="2" d="M26.1,30H6C6,16.2,17.2,5,31,5
			s25,11.2,25,25H35.7" class="si-outline-dashboard-dial si-outline-dashboard-stroke si-outline-stroke" style=""></path>
		<circle id="Oval" fill="none" stroke="#6B6C6E" stroke-width="2" cx="31" cy="30" r="4" class="si-outline-dashboard-needle si-outline-dashboard-stroke si-outline-stroke" style="">
		</circle>
		<path id="Shape_2_" fill="none" stroke="#6B6C6E" stroke-width="2" d="M31,4v5" class="si-outline-dashboard-dial si-outline-dashboard-stroke si-outline-stroke" style=""></path>
		<path id="Shape_3_" fill="none" stroke="#6B6C6E" stroke-width="2" d="M14,13l3,3" class="si-outline-dashboard-dial si-outline-dashboard-stroke si-outline-stroke" style=""></path>
		<path id="Shape_4_" fill="none" stroke="#6B6C6E" stroke-width="2" d="M48,13l-3,3" class="si-outline-dashboard-dial si-outline-dashboard-stroke si-outline-stroke" style=""></path>
	</g>
</g>
</svg>
