<!--?xml version="1.0" encoding="utf-8"?-->
<!-- Generator: Adobe Illustrator 17.0.0, SVG Export Plug-In . SVG Version: 6.00 Build 0)  -->

<svg version="1.1" id="Layer_1" xmlns="http://www.w3.org/2000/svg" xmlns:xlink="http://www.w3.org/1999/xlink" x="0px" y="0px" width="57px" height="64px" viewBox="0 0 57 64" enable-background="new 0 0 57 64" xml:space="preserve" class="si-outline-database-checked">
<title class="">Database-checked</title>

<g id="Page-1" class="">
	<g id="Database-checked" transform="translate(1.000000, 1.000000)" class="">
		<path id="Shape_2_" fill="none" stroke="#6B6C6E" stroke-width="2" d="M45,48.8V2c0-1.1-0.9-2-2-2H2
			C0.9,0,0,0.9,0,2v58c0,1.1,0.9,2,2,2h41.1c1.1,0,2-0.9,2-2v-1.9" class="si-outline-database-checked-database si-outline-database-checked-stroke si-outline-stroke" style=""></path>
		<path id="Shape" fill="none" stroke="#6B6C6E" stroke-width="2" d="M0,20h45" class="si-outline-database-checked-database si-outline-database-checked-stroke si-outline-stroke" style=""></path>
		<path id="Shape_1_" fill="none" stroke="#6B6C6E" stroke-width="2" d="M0,42h44.7" class="si-outline-database-checked-database si-outline-database-checked-stroke si-outline-stroke" style=""></path>
		<path id="Shape_3_" fill="none" stroke="#6B6C6E" stroke-width="2" d="M54.7,46.8L51.9,44
			c-0.4-0.4-1-0.4-1.4,0l-7.7,7.7l-3.5-3.5c-0.4-0.4-1-0.4-1.4,0L35.1,51c-0.4,0.4-0.4,1,0,1.4l7,7c0.4,0.4,1,0.4,1.4,0l11.2-11.2
			C55.1,47.9,55.1,47.2,54.7,46.8L54.7,46.8z" class="si-outline-database-checked-checked si-outline-database-checked-stroke si-outline-stroke" style=""></path>
	</g>
</g>
</svg>
